# xmcd
#
# Track frame offsets: 
#        150
#        28091
#        47171
#        69983
#        86686
#        105167
#        126503
#        151821
#        166096
#        183697
#
# Disc length: 2678 seconds
#
# Revision: 0
# Processed by: cddbd v1.5.2PL0 Copyright (c) Steve Scherf et al.
# Submitted via: ExactAudioCopyFreeDBPlugin 1.0
#
DISCID=7b0a740a
DTITLE=The Steepwater Band - Clava
DYEAR=2011
DGENRE=Blues
TTITLE0=Remember The Taker
TTITLE1=Vanishing Girl
TTITLE2=Come On Down
TTITLE3=Love Never Ends
TTITLE4=Bury My Burden Deep
TTITLE5=High and Humble
TTITLE6=Won't Be Long For Now
TTITLE7=Out On Love
TTITLE8=Off The Rails
TTITLE9=Meet Me In The Aftermath
EXTD=
EXTT0=
EXTT1=
EXTT2=
EXTT3=
EXTT4=
EXTT5=
EXTT6=
EXTT7=
EXTT8=
EXTT9=
PLAYORDER=
